<svg clip-rule="evenodd" fill-rule="evenodd" stroke-linecap="round" stroke-linejoin="round" stroke-miterlimit="1.5" viewBox="0 0 500 500" xml:space="preserve" xmlns="http://www.w3.org/2000/svg"><path d="m249.446 5.71.398.003 1.036.009.383.006 1.364.02.165.003 1.21.027.41.012 1.044.03.351.011 1.355.044.26.012 1.115.044.413.02 1.068.051.313.015 1.345.07.322.018 1.053.065.416.027 1.107.07.257.018 1.336.098.366.03 1.012.079.416.032 1.175.1.174.015 1.325.121.398.039.983.094.413.042 1.298.135.112.012 1.24.136.427.05.956.112.41.047 1.296.16.256.032 1.069.139.454.062.935.127.41.056 1.27.18.362.053.956.142.481.073.915.142.41.065 1.242.198.443.073.867.148.51.085.889.157.416.07 1.21.219.51.094.788.148.546.103.859.166.404.08.215.043.983.195.572.118.708.145.59.124.809.17.39.084.463.103.737.16.632.14.628.142.644.148.708.165.425.098.62.147.575.139.699.168.531.13.714.177.357.091.708.177.738.192.449.115.767.201.41.11c.885.235 1.767.474 2.65.72l.324.09.85.24.245.068c.938.268 1.876.54 2.809.82l.2.059.945.286c96.882 29.426 167.41 118.84 167.41 224.453 0 93.497-55.276 174.297-135.174 212.023h-.003c-6.28 2.966-3.739 1.393-10.307 3.81-.537 21.172-9.25 40.3-18.259 42.725-8.964 2.414-28.412-7.058-38.152-25.336-12.936 2.54-14.93 1.048-28.53 1.402l-1.05.026-.573.012-1.015.018-.578.009-1.077.012-.508.003-1.578.005c-130.695 0-236.804-105.17-236.804-234.71 0-129.541 106.11-234.709 236.804-234.709l1.375.003z" fill="#fff"/><path d="m249.362 23.828.369.003.96.008.355.006 1.263.019.153.002 1.12.025.38.011.969.027.325.011 1.255.041.24.011 1.034.041.383.02.99.046.29.013 1.246.066.298.017.976.06.385.024 1.026.066.238.016 1.238.09.34.028.937.074.385.03 1.089.093.16.013 1.228.112.37.036.91.088.383.038 1.203.126.104.01 1.148.126.396.047.886.104.38.043 1.2.148.238.03.99.129.42.057.868.118.38.052 1.175.166.337.05.885.13.446.07.848.13.38.06 1.15.184.41.068.804.137.473.079.823.145.386.066 1.12.202.474.087.73.137.506.096.795.153.375.074.2.04.91.181.53.11.656.133.547.115.75.159.36.076.43.096.683.148.585.131.582.131.596.137.656.153.394.09.574.137.533.129.648.155.492.12.662.165.33.084.657.165.684.177.415.107.711.186.38.1c.82.22 1.638.441 2.455.668l.3.085.788.221.227.063c.87.249 1.739.5 2.603.76l.186.055.875.265c89.768 27.265 155.116 110.11 155.116 207.966 0 86.63-51.216 161.495-125.247 196.45h-.003a218.454 218.454 0 0 1-17.861 7.486c-.498 19.618-.26 33.384-8.607 35.631-8.306 2.237-15.838-9.31-24.863-26.247a221.095 221.095 0 0 1-36.923 4.071l-.973.025-.53.01-.94.017-.537.008-.998.011-.47.003-1.463.005c-121.097 0-219.414-97.446-219.414-217.47 0-120.026 98.317-217.47 219.414-217.47l1.275.003z"/><path d="M252.806 141.613c10.302-9.146 42.476-38.496 81.616-38.496 46.574 0 84.385 36.17 84.385 80.721 0 44.55-37.811 80.719-84.385 80.719-36.988 0-72.29-28.396-79.836-39.855-10.086 17.941-44.821 48.798-86.561 48.798-49.259 0-89.249-37.624-89.249-83.964 0-46.343 39.99-83.964 89.249-83.964 39.503 0 72.55 26.11 84.781 36.041z" fill="#fff"/><g transform="matrix(.99998 0 0 1 25.517 .643)"><path d="M260.87 147.51c9.846-7.775 25.525-17.653 43.502-17.653 29.777 0 53.953 23.589 53.953 52.644s-24.176 52.644-53.953 52.644c-16.385 0-32.253-8.891-42.058-16.838-8.616-9.901-13.782-22.522-13.782-36.261 0-12.953 4.592-24.912 12.338-34.536z"/><clipPath id="a"><path d="M260.87 147.51c9.846-7.775 25.525-17.653 43.502-17.653 29.777 0 53.953 23.589 53.953 52.644s-24.176 52.644-53.953 52.644c-16.385 0-32.253-8.891-42.058-16.838-8.616-9.901-13.782-22.522-13.782-36.261 0-12.953 4.592-24.912 12.338-34.536z"/></clipPath><g clip-path="url(#a)"><path d="M266.677 194.072c-3.698-6.878-5.323-14.997-4.15-23.376 2.889-20.64 21.665-35.098 41.904-32.265 8.637 1.209 16.152 5.373 21.707 11.352a45.191 45.191 0 0 0-.73-.107c-28.22-3.95-54.4 15.903-58.73 44.396z" fill="#fff" stroke="#000" stroke-width="5.7"/></g></g><g transform="matrix(-1.02208 -.04332 -.04323 1.02 493.108 13.512)"><path d="M260.87 147.51c9.846-7.775 25.525-17.653 43.502-17.653 29.777 0 53.953 23.589 53.953 52.644s-24.176 52.644-53.953 52.644c-16.385 0-32.253-8.891-42.058-16.838-8.616-9.901-13.782-22.522-13.782-36.261 0-12.953 4.592-24.912 12.338-34.536z"/><clipPath id="b"><path d="M260.87 147.51c9.846-7.775 25.525-17.653 43.502-17.653 29.777 0 53.953 23.589 53.953 52.644s-24.176 52.644-53.953 52.644c-16.385 0-32.253-8.891-42.058-16.838-8.616-9.901-13.782-22.522-13.782-36.261 0-12.953 4.592-24.912 12.338-34.536z"/></clipPath><g clip-path="url(#b)"><path d="M253.89 207.5c-4.616-6.299-7.351-14.114-7.351-22.575 0-20.841 16.591-37.762 37.027-37.762 8.721 0 16.741 3.082 23.071 8.234a45.191 45.191 0 0 0-.737-.005c-28.496 0-51.671 23.29-52.01 52.108z" fill="#fff" stroke="#000" stroke-width="5.74" transform="matrix(-.94328 -.03463 -.0371 .99935 587.06 3.702)"/></g></g><g><path d="m311.36 464.174-94.911-166.886 41.58-23.591 45.95 7.632 7.38 182.845z" fill="#e6e6e6"/><path d="m257.964 273.693 46.02 7.646 7.383 182.847-53.403-190.493z" fill="#fff"/></g></svg>