<?xml version="1.0" encoding="UTF-8" standalone="no"?>
<!DOCTYPE svg PUBLIC "-//W3C//DTD SVG 1.1//EN" "http://www.w3.org/Graphics/SVG/1.1/DTD/svg11.dtd">
<svg width="100%" height="100%" viewBox="0 0 500 500" version="1.1" xmlns="http://www.w3.org/2000/svg" xmlns:xlink="http://www.w3.org/1999/xlink" xml:space="preserve" xmlns:serif="http://www.serif.com/" style="fill-rule:evenodd;clip-rule:evenodd;stroke-linecap:round;stroke-linejoin:round;stroke-miterlimit:1.5;">
    <g id="BlobiColor2" transform="matrix(0.273544,0,0,0.288755,-62.7518,-319.913)">
        <g id="background" transform="matrix(10.7872,0,0,10.2189,-4112.71,-1049.12)">
            <path d="M487.066,213.006L487.201,213.007L487.552,213.01L487.682,213.012L488.144,213.019L488.2,213.02L488.61,213.029L488.749,213.033L489.103,213.043L489.222,213.047L489.681,213.062L489.769,213.066L490.147,213.081L490.287,213.088L490.649,213.105L490.755,213.11L491.211,213.134L491.32,213.14L491.677,213.162L491.818,213.171L492.193,213.195L492.28,213.201L492.733,213.234L492.857,213.244L493.2,213.271L493.341,213.282L493.739,213.316L493.798,213.321L494.247,213.362L494.382,213.375L494.715,213.407L494.855,213.421L495.295,213.467L495.333,213.471L495.753,213.517L495.898,213.534L496.222,213.572L496.361,213.588L496.8,213.642L496.887,213.653L497.249,213.7L497.403,213.721L497.72,213.764L497.859,213.783L498.289,213.844L498.412,213.862L498.736,213.91L498.899,213.935L499.209,213.983L499.348,214.005L499.769,214.072L499.919,214.097L500.213,214.147L500.386,214.176L500.687,214.229L500.828,214.253L501.238,214.327L501.411,214.359L501.678,214.409L501.863,214.444L502.154,214.5L502.291,214.527L502.364,214.542L502.697,214.608L502.891,214.648L503.131,214.697L503.331,214.739L503.605,214.797L503.737,214.825L503.894,214.86L504.144,214.914L504.358,214.962L504.571,215.01L504.789,215.06L505.029,215.116L505.173,215.149L505.383,215.199L505.578,215.246L505.815,215.303L505.995,215.347L506.237,215.407L506.358,215.438L506.598,215.498L506.848,215.563L507,215.602L507.26,215.67L507.399,215.707C507.699,215.787 507.998,215.868 508.297,215.951L508.407,215.982L508.695,216.063L508.778,216.086C509.096,216.177 509.414,216.269 509.73,216.364L509.798,216.384L510.118,216.481C542.952,226.453 566.854,256.754 566.854,292.545C566.854,324.23 548.121,351.612 521.043,364.397L521.042,364.397C518.914,365.402 519.775,364.869 517.549,365.688C517.367,372.863 514.414,379.345 511.361,380.167C508.323,380.985 501.732,377.775 498.431,371.581C494.047,372.442 493.371,371.936 488.762,372.056L488.406,372.065L488.212,372.069L487.868,372.075L487.672,372.078L487.307,372.082L487.135,372.083L486.6,372.085C442.307,372.085 406.346,336.444 406.346,292.545C406.346,248.645 442.307,213.005 486.6,213.005L487.066,213.006Z" style="fill:white;"/>
        </g>
        <g id="background1" serif:id="background" transform="matrix(9.99491,0,0,9.46837,-3727.17,-826.471)">
            <path d="M487.066,213.006L487.201,213.007L487.552,213.01L487.682,213.012L488.144,213.019L488.2,213.02L488.61,213.029L488.749,213.033L489.103,213.043L489.222,213.047L489.681,213.062L489.769,213.066L490.147,213.081L490.287,213.088L490.649,213.105L490.755,213.11L491.211,213.134L491.32,213.14L491.677,213.162L491.818,213.171L492.193,213.195L492.28,213.201L492.733,213.234L492.857,213.244L493.2,213.271L493.341,213.282L493.739,213.316L493.798,213.321L494.247,213.362L494.382,213.375L494.715,213.407L494.855,213.421L495.295,213.467L495.333,213.471L495.753,213.517L495.898,213.534L496.222,213.572L496.361,213.588L496.8,213.642L496.887,213.653L497.249,213.7L497.403,213.721L497.72,213.764L497.859,213.783L498.289,213.844L498.412,213.862L498.736,213.91L498.899,213.935L499.209,213.983L499.348,214.005L499.769,214.072L499.919,214.097L500.213,214.147L500.386,214.176L500.687,214.229L500.828,214.253L501.238,214.327L501.411,214.359L501.678,214.409L501.863,214.444L502.154,214.5L502.291,214.527L502.364,214.542L502.697,214.608L502.891,214.648L503.131,214.697L503.331,214.739L503.605,214.797L503.737,214.825L503.894,214.86L504.144,214.914L504.358,214.962L504.571,215.01L504.789,215.06L505.029,215.116L505.173,215.149L505.383,215.199L505.578,215.246L505.815,215.303L505.995,215.347L506.237,215.407L506.358,215.438L506.598,215.498L506.848,215.563L507,215.602L507.26,215.67L507.399,215.707C507.699,215.787 507.998,215.868 508.297,215.951L508.407,215.982L508.695,216.063L508.778,216.086C509.096,216.177 509.414,216.269 509.73,216.364L509.798,216.384L510.118,216.481C542.952,226.453 566.854,256.754 566.854,292.545C566.854,324.23 548.121,351.612 521.043,364.397L521.042,364.397C518.914,365.402 516.735,366.316 514.509,367.135C514.327,374.31 514.414,379.345 511.361,380.167C508.323,380.985 505.568,376.762 502.267,370.567C497.883,371.429 493.371,371.936 488.762,372.056L488.406,372.065L488.212,372.069L487.868,372.075L487.672,372.078L487.307,372.082L487.135,372.083L486.6,372.085C442.307,372.085 406.346,336.444 406.346,292.545C406.346,248.645 442.307,213.005 486.6,213.005L487.066,213.006Z"/>
        </g>
        <g transform="matrix(9.99491,0,0,9.46837,-3727.17,-826.471)">
            <path d="M488.327,256.09C492.095,252.745 503.863,242.01 518.179,242.01C535.214,242.01 549.044,255.239 549.044,271.534C549.044,287.828 535.214,301.057 518.179,301.057C504.65,301.057 491.738,290.671 488.978,286.48C485.289,293.042 472.584,304.328 457.317,304.328C439.3,304.328 424.673,290.567 424.673,273.618C424.673,256.668 439.3,242.908 457.317,242.908C471.766,242.908 483.853,252.458 488.327,256.09Z" style="fill:white;"/>
        </g>
        <g id="eyes" transform="matrix(3.65573,0,0,3.46314,229.403,1107.9)">
            <g transform="matrix(1,0,0,1,25.5191,0.635818)">
                <path d="M260.867,147.507C270.713,139.732 286.392,129.854 304.369,129.854C334.146,129.854 358.322,153.443 358.322,182.498C358.322,211.553 334.146,235.142 304.369,235.142C287.984,235.142 272.116,226.251 262.311,218.304C253.695,208.403 248.529,195.782 248.529,182.043C248.529,169.09 253.121,157.131 260.867,147.507Z"/>
                <clipPath id="_clip1">
                    <path d="M260.867,147.507C270.713,139.732 286.392,129.854 304.369,129.854C334.146,129.854 358.322,153.443 358.322,182.498C358.322,211.553 334.146,235.142 304.369,235.142C287.984,235.142 272.116,226.251 262.311,218.304C253.695,208.403 248.529,195.782 248.529,182.043C248.529,169.09 253.121,157.131 260.867,147.507Z"/>
                </clipPath>
                <g clip-path="url(#_clip1)">
                    <g transform="matrix(0.990346,0.138617,-0.138617,0.990346,44.0012,-46.6198)">
                        <path d="M253.893,207.496C249.277,201.197 246.542,193.382 246.542,184.921C246.542,164.08 263.133,147.159 283.569,147.159C292.29,147.159 300.31,150.241 306.64,155.393C306.395,155.389 306.149,155.388 305.903,155.388C277.407,155.388 254.232,178.678 253.893,207.496Z" style="fill:white;stroke:black;stroke-width:5.7px;"/>
                    </g>
                </g>
            </g>
            <g transform="matrix(-1.02214,-0.0433233,-0.0432335,1.02002,493.122,13.5053)">
                <path d="M260.867,147.507C270.713,139.732 286.392,129.854 304.369,129.854C334.146,129.854 358.322,153.443 358.322,182.498C358.322,211.553 334.146,235.142 304.369,235.142C287.984,235.142 272.116,226.251 262.311,218.304C253.695,208.403 248.529,195.782 248.529,182.043C248.529,169.09 253.121,157.131 260.867,147.507Z"/>
                <clipPath id="_clip2">
                    <path d="M260.867,147.507C270.713,139.732 286.392,129.854 304.369,129.854C334.146,129.854 358.322,153.443 358.322,182.498C358.322,211.553 334.146,235.142 304.369,235.142C287.984,235.142 272.116,226.251 262.311,218.304C253.695,208.403 248.529,195.782 248.529,182.043C248.529,169.09 253.121,157.131 260.867,147.507Z"/>
                </clipPath>
                <g clip-path="url(#_clip2)">
                    <g transform="matrix(-0.943283,-0.034628,-0.037103,0.999349,587.057,3.70205)">
                        <path d="M253.893,207.496C249.277,201.197 246.542,193.382 246.542,184.921C246.542,164.08 263.133,147.159 283.569,147.159C292.29,147.159 300.31,150.241 306.64,155.393C306.395,155.389 306.149,155.388 305.903,155.388C277.407,155.388 254.232,178.678 253.893,207.496Z" style="fill:white;stroke:black;stroke-width:5.74px;"/>
                    </g>
                </g>
            </g>
        </g>
        <g id="schnabel" transform="matrix(0.936809,0,0,0.936809,70.1937,121.975)">
            <g transform="matrix(-0.98541,0.170199,-0.249149,-1.44251,3166.62,5620.93)">
                <path d="M1270.13,2127.35L1530.1,2585.7L1355.36,2625.54L1183.47,2585.7L1270.13,2127.35Z" style="fill:rgb(230,230,230);"/>
            </g>
            <g transform="matrix(0.57207,0.820205,-0.820205,0.57207,2295.3,-53.3232)">
                <path d="M1096.83,2128.94L1222.75,1997.81L1793.63,2360.86L1096.83,2128.94Z" style="fill:white;"/>
            </g>
        </g>
    </g>
</svg>
